<?xml version="1.0" encoding="UTF-8" standalone="no"?>
<!DOCTYPE svg PUBLIC "-//W3C//DTD SVG 1.1//EN"
 "http://www.w3.org/Graphics/SVG/1.1/DTD/svg11.dtd">
<!-- Generated by graphviz version 2.38.0 (20140413.2041)
 -->
<!-- Title: %3 Pages: 1 -->
<svg width="421pt" height="238pt"
 viewBox="0.00 0.00 420.54 238.00" xmlns="http://www.w3.org/2000/svg" xmlns:xlink="http://www.w3.org/1999/xlink">
<g id="graph0" class="graph" transform="scale(1 1) rotate(0) translate(4 234)">
<title>%3</title>
<polygon fill="white" stroke="none" points="-4,4 -4,-234 416.536,-234 416.536,4 -4,4"/>
<g id="clust1" class="cluster"><title>cluster85</title>
<path fill="none" stroke="black" d="M108.594,-91C108.594,-91 204.594,-91 204.594,-91 210.594,-91 216.594,-97 216.594,-103 216.594,-103 216.594,-154 216.594,-154 216.594,-160 210.594,-166 204.594,-166 204.594,-166 108.594,-166 108.594,-166 102.594,-166 96.594,-160 96.594,-154 96.594,-154 96.594,-103 96.594,-103 96.594,-97 102.594,-91 108.594,-91"/>
<text text-anchor="middle" x="201.594" y="-98.8" font-family="Times,serif" font-size="14.00">85</text>
</g>
<g id="clust2" class="cluster"><title>cluster919</title>
<path fill="none" stroke="black" d="M135.594,-8C135.594,-8 267.594,-8 267.594,-8 273.594,-8 279.594,-14 279.594,-20 279.594,-20 279.594,-71 279.594,-71 279.594,-77 273.594,-83 267.594,-83 267.594,-83 135.594,-83 135.594,-83 129.594,-83 123.594,-77 123.594,-71 123.594,-71 123.594,-20 123.594,-20 123.594,-14 129.594,-8 135.594,-8"/>
<text text-anchor="middle" x="261.094" y="-15.8" font-family="Times,serif" font-size="14.00">919</text>
</g>
<!-- mu_a -->
<g id="node1" class="node"><title>mu_a</title>
<ellipse fill="none" stroke="black" cx="67.594" cy="-212" rx="67.6881" ry="18"/>
<text text-anchor="middle" x="67.594" y="-208.3" font-family="Times,serif" font-size="14.00">mu_a ~ Normal</text>
</g>
<!-- a -->
<g id="node4" class="node"><title>a</title>
<ellipse fill="none" stroke="black" cx="156.594" cy="-140" rx="51.9908" ry="18"/>
<text text-anchor="middle" x="156.594" y="-136.3" font-family="Times,serif" font-size="14.00">a ~ Normal</text>
</g>
<!-- mu_a&#45;&gt;a -->
<g id="edge1" class="edge"><title>mu_a&#45;&gt;a</title>
<path fill="none" stroke="black" d="M88.2361,-194.765C100.199,-185.355 115.428,-173.378 128.474,-163.117"/>
<polygon fill="black" stroke="black" points="130.98,-165.599 136.676,-156.666 126.652,-160.097 130.98,-165.599"/>
</g>
<!-- sigma_y -->
<g id="node2" class="node"><title>sigma_y</title>
<ellipse fill="none" stroke="black" cx="319.594" cy="-140" rx="92.8835" ry="18"/>
<text text-anchor="middle" x="319.594" y="-136.3" font-family="Times,serif" font-size="14.00">sigma_y ~ HalfCauchy</text>
</g>
<!-- y_like -->
<g id="node5" class="node"><title>y_like</title>
<ellipse fill="lightgrey" stroke="black" cx="201.594" cy="-57" rx="69.5877" ry="18"/>
<text text-anchor="middle" x="201.594" y="-53.3" font-family="Times,serif" font-size="14.00">y_like ~ Normal</text>
</g>
<!-- sigma_y&#45;&gt;y_like -->
<g id="edge4" class="edge"><title>sigma_y&#45;&gt;y_like</title>
<path fill="none" stroke="black" d="M295.43,-122.413C277.457,-110.076 252.765,-93.1258 233.221,-79.7101"/>
<polygon fill="black" stroke="black" points="235.147,-76.7866 224.921,-74.0128 231.185,-82.5578 235.147,-76.7866"/>
</g>
<!-- sigma_a -->
<g id="node3" class="node"><title>sigma_a</title>
<ellipse fill="none" stroke="black" cx="246.594" cy="-212" rx="92.8835" ry="18"/>
<text text-anchor="middle" x="246.594" y="-208.3" font-family="Times,serif" font-size="14.00">sigma_a ~ HalfCauchy</text>
</g>
<!-- sigma_a&#45;&gt;a -->
<g id="edge2" class="edge"><title>sigma_a&#45;&gt;a</title>
<path fill="none" stroke="black" d="M225.265,-194.411C213.241,-185.058 198.064,-173.254 185.037,-163.123"/>
<polygon fill="black" stroke="black" points="186.885,-160.126 176.843,-156.749 182.587,-165.651 186.885,-160.126"/>
</g>
<!-- a&#45;&gt;y_like -->
<g id="edge3" class="edge"><title>a&#45;&gt;y_like</title>
<path fill="none" stroke="black" d="M165.918,-122.217C172.031,-111.213 180.148,-96.6021 187.095,-84.0976"/>
<polygon fill="black" stroke="black" points="190.33,-85.4818 192.127,-75.0404 184.211,-82.0822 190.33,-85.4818"/>
</g>
</g>
</svg>
